<?xml version="1.0" ?><!DOCTYPE svg  PUBLIC '-//W3C//DTD SVG 1.1//EN'  'http://www.w3.org/Graphics/SVG/1.1/DTD/svg11.dtd'><svg height="2048px" style="shape-rendering:geometricPrecision; text-rendering:geometricPrecision; image-rendering:optimizeQuality; fill-rule:evenodd; clip-rule:evenodd" viewBox="0 0 2048 2048" width="2048px" xml:space="preserve" xmlns="http://www.w3.org/2000/svg" xmlns:xlink="http://www.w3.org/1999/xlink"><defs><style type="text/css">
   <![CDATA[
    .fil5 {fill:none}
    .fil2 {fill:#A8CF45}
    .fil0 {fill:#FFFFFE}
    .fil1 {fill:#00AFEF}
    .fil4 {fill:#ED3237}
    .fil3 {fill:#FFF212}
   ]]>
  </style></defs><g id="Layer_x0020_1"><g id="_337335048"><circle class="fil0" cx="1024" cy="1024" id="_337336272" r="460.452"/><circle class="fil1" cx="1024" cy="1024" id="_337335816" r="299.826"/><path class="fil2" d="M959.848 1789.29c-393.174,-32.7815 -703.849,-363.892 -703.849,-765.288 0,-158.307 48.3307,-305.686 130.978,-428.149l214.324 384.455 77.9894 139.896c42.1985,150.656 180.894,261.695 344.71,261.695 81.1571,0 156.137,-27.2681 216.288,-73.0902l-280.441 480.481z" id="_337334928"/><path class="fil3" d="M913.942 1784.06l0.0295276 -0.0448819c2.91024,0.421654 5.81457,0.861024 8.7319,1.25906 -2.92559,-0.388583 -5.84528,-0.793701 -8.76142,-1.21417zm223.028 -1099.62l576.788 2.45551c50.0634,101.868 78.2434,216.292 78.2434,337.105 0,423 -345.001,768.001 -768.001,768.001 -33.9792,0 -67.441,-2.27244 -100.273,-6.59528 11.9528,1.58504 23.9988,2.87126 36.1205,3.88229l280.441 -480.481c85.9501,-65.4733 141.608,-168.842 141.608,-284.807 0,-157.675 -102.875,-292.075 -244.928,-339.56z" id="_337335432"/><path class="fil4" d="M1024 255.998c302.129,0 564.419,176.021 689.666,430.745l-540.866 -2.30315c0.295276,0.0992127 0.588189,0.197244 0.882284,0.295276l-36.2729 -0.153543c-35.6622,-11.9799 -73.7977,-18.4784 -113.41,-18.4784 -197.123,0 -357.897,160.774 -357.897,357.897 0,33.3107 4.60748,65.5725 13.1894,96.2068l-77.9918 -139.901 -214.303 -384.42c138.186,-204.769 372.301,-339.888 637.002,-339.888z" id="_337335240"/></g></g><rect class="fil5" height="2048" width="2048"/></svg>